<svg xmlns="http://www.w3.org/2000/svg" xmlns:xlink="http://www.w3.org/1999/xlink" version="1.1" x="0px" y="0px" viewBox="0 0 100 125" style="enable-background:new 0 0 100 100;" xml:space="preserve"><style type="text/css">
	.st0{fill:none;}
</style><path d="M95.36,49.11L53.02,2.99c-0.66-0.72-1.57-1.09-2.47-1.09c-0.88,0-1.77,0.35-2.43,1.04L4.68,48.5  c-0.6,0.62-0.93,1.45-0.93,2.32V60c0,1.03,0.47,2,1.28,2.64L50.75,98.6c0.61,0.48,1.34,0.72,2.08,0.72c0.8,0,1.6-0.29,2.24-0.86  l40.06-35.83c0.71-0.64,1.12-1.55,1.12-2.5v-8.75C96.24,50.54,95.93,49.73,95.36,49.11z M51.25,42.09l0.58-36.7l41.07,44.73  L72.98,55.1L51.07,42.68C51.17,42.5,51.25,42.3,51.25,42.09z M6.49,50.23L49.33,5.3l-0.58,36.75c0,0.25,0.08,0.47,0.21,0.67  L28.91,55.18L6.42,50.34C6.45,50.31,6.46,50.26,6.49,50.23z M6.58,60.68C6.38,60.51,6.26,60.27,6.26,60v-7.14l23.04,4.95  l22.39,38.34L6.58,60.68z M52.73,92.99L31.45,56.54l18.66-11.6l20.32,11.67L52.73,92.99z M93.74,60.13c0,0.24-0.1,0.48-0.29,0.64  L54.12,95.96l18.5-38.19l21.12-5.28V60.13z"/></svg>