<svg xmlns="http://www.w3.org/2000/svg" xmlns:xlink="http://www.w3.org/1999/xlink" version="1.1" x="0px" y="0px" viewBox="0 0 100 125" style="enable-background:new 0 0 100 100;" xml:space="preserve"><style type="text/css">
</style><path d="M95.87,35.59c-0.04-1.24-0.45-2.44-1.18-3.44l-15.2-20.74c-0.79-1.08-1.92-1.88-3.21-2.26L51.6,1.84  c-0.57-0.17-1.16-0.25-1.74-0.25c-0.69,0-1.38,0.12-2.04,0.35L22.5,10.87c-1.18,0.42-2.2,1.18-2.94,2.2L3.87,34.85  c-0.79,1.1-1.2,2.42-1.16,3.78l0.8,26.19c0.04,1.3,0.49,2.55,1.28,3.57l16.1,20.79c0.79,1.02,1.89,1.77,3.14,2.13l25.25,7.35  c0.56,0.16,1.14,0.24,1.72,0.24c0.7,0,1.4-0.12,2.07-0.36l24.75-8.89c1.22-0.44,2.27-1.25,3-2.32l14.8-21.74  c0.73-1.07,1.1-2.35,1.06-3.64L95.87,35.59z M50.94,28.04V4.25l24.63,7.3c0.76,0.22,1.43,0.7,1.9,1.34l15.12,20.63  c-0.06,0.02-0.12,0.02-0.18,0.06l-19.5,10.88c-0.17-0.23-0.37-0.43-0.61-0.61l-20.92-15.2c-0.16-0.12-0.33-0.21-0.51-0.29  C50.91,28.26,50.94,28.16,50.94,28.04z M49.92,30.68l20.92,15.2c0.15,0.11,0.22,0.31,0.16,0.49l-7.99,24.59  c-0.06,0.18-0.23,0.31-0.42,0.31H36.73c-0.19,0-0.36-0.12-0.42-0.31l-7.99-24.59c-0.06-0.18,0.01-0.38,0.16-0.49l20.92-15.2  C49.55,30.56,49.76,30.56,49.92,30.68z M5.9,36.31l15.7-21.78c0.44-0.6,1.04-1.06,1.74-1.3l25.11-8.86v23.67  c0,0.11,0.04,0.2,0.06,0.3c-0.2,0.09-0.39,0.19-0.58,0.32l-20.92,15.2c-0.24,0.17-0.44,0.38-0.62,0.61L5.66,36.7  C5.73,36.57,5.81,36.44,5.9,36.31z M22.66,87.37L6.78,66.86c-0.47-0.61-0.74-1.34-0.76-2.12L5.23,39.21l20.66,7.73  c0.02,0.07,0.03,0.13,0.05,0.2l7.99,24.59c0.01,0.04,0.03,0.08,0.05,0.12L22.66,87.37z M52.23,96.2c-0.4,0.14-0.81,0.21-1.23,0.21  c-0.34,0-0.69-0.05-1.02-0.15l-25.25-7.35c-0.03-0.01-0.05-0.02-0.08-0.03l11.13-15.27c0.3,0.1,0.61,0.15,0.94,0.15h25.86  c0.41,0,0.81-0.09,1.17-0.25l12.35,14.11L52.23,96.2z M93.55,64.2l-14.8,21.74c-0.12,0.17-0.25,0.33-0.39,0.47L65.43,71.64  c0,0-0.01-0.01-0.01-0.01l7.95-24.48c0.01-0.03,0.01-0.06,0.02-0.09l19.98-11.15l0.8,26.13C94.2,62.81,93.98,63.56,93.55,64.2z"/></svg>