<svg xmlns="http://www.w3.org/2000/svg" xmlns:xlink="http://www.w3.org/1999/xlink" version="1.1" x="0px" y="0px" viewBox="0 0 100 125" style="enable-background:new 0 0 100 100;" xml:space="preserve"><style type="text/css">
</style><path d="M88.02,23.08L55.07,4.18c-1.31-0.75-2.78-1.13-4.24-1.13c-1.41,0-2.83,0.35-4.11,1.05l-34.6,19  c-1.47,0.81-2.62,2.01-3.39,3.43l-0.04,0l0.01,0.05c-0.65,1.21-1.01,2.58-1.01,4v40.43c0,3.11,1.7,5.98,4.42,7.48l34.6,19  c1.28,0.7,2.69,1.05,4.11,1.05c1.47,0,2.93-0.38,4.24-1.13l32.95-18.9c2.65-1.52,4.29-4.34,4.29-7.4V30.48  C92.3,27.42,90.67,24.6,88.02,23.08z M52.13,5.71c0.59,0.13,1.16,0.34,1.69,0.64l32.95,18.9c1,0.57,1.79,1.42,2.32,2.41l-37.65,2.06  l-0.18-0.27L52.13,5.71z M87.73,30.24L75.27,66.42L53.01,32.14L87.73,30.24z M49.8,32.29c0.07,0.01,0.13,0.01,0.2,0.01  c0.04,0,0.09,0,0.13,0l24.03,37.01l-49.49-0.56L49.8,32.29L49.8,32.29z M23.63,65.85L12.19,29.32l34.73,2.74L23.63,65.85z   M13.32,25.3l34.6-19C48.46,6,49.03,5.8,49.63,5.68l-0.87,23.71l-0.2,0.3l-36.99-2.92C12.05,26.18,12.64,25.68,13.32,25.3z   M10.2,71.02V31.33l11.63,37.13l-0.32,0.47l-11.03,3.88C10.3,72.24,10.2,71.64,10.2,71.02z M13.32,76.3  c-0.61-0.34-1.14-0.78-1.59-1.28l10.77-3.79l1.05,0.01l23.31,23.49L13.32,76.3z M27.12,71.28l44.9,0.51L50.83,95.17L27.12,71.28z   M86.77,76.35L54.46,94.88l20.89-23.06l0.9,0.01l11.32,3.95C87.33,75.99,87.06,76.19,86.77,76.35z M89.8,71.12  c0,0.91-0.22,1.79-0.6,2.58L77.3,69.54L77,69.08L89.8,31.89V71.12z"/></svg>