<svg xmlns="http://www.w3.org/2000/svg" xmlns:xlink="http://www.w3.org/1999/xlink" version="1.1" x="0px" y="0px" viewBox="0 0 100 125" style="enable-background:new 0 0 100 100;" xml:space="preserve"><style type="text/css">
	.st0{fill:none;}
</style><path d="M92.36,23.38c-0.36-0.43-0.83-0.82-1.18-1c0,0-40.06-20.76-40.06-20.76c-0.75-0.39-1.64-0.38-2.39,0.02  c0,0-38.23,20.76-38.23,20.76c-2.16,1.17-1.61,4.06-1.61,6.11c0,3.01,0,39.46,0,43.29c0,0.87,0.44,1.68,1.16,2.14l38.57,25.3  c0.12,0.08,0.26,0.12,0.39,0.18c0.23,0.26,0.55,0.43,0.93,0.43c0.35,0,0.66-0.14,0.88-0.37c0.13-0.05,0.27-0.09,0.39-0.15  l40.38-22.34c0.83-0.45,1.34-1.3,1.34-2.24c0,0,0-50.17,0-50.17C92.93,24.2,92.69,23.77,92.36,23.38z M48.68,96.3l-37.3-24.49V27.45  l37.21,23.2c0.03,0.02,0.06,0.02,0.08,0.04V96.3z M49.92,48.53L11.69,24.6L49.92,3.84c0,0,0.04,0,0.04,0l40.06,20.85L49.92,48.53z   M90.39,74.79L51.18,96.47V50.71c0.02-0.01,0.05-0.02,0.07-0.03l39.17-23.31L90.39,74.79z"/></svg>