<svg xmlns="http://www.w3.org/2000/svg" xmlns:xlink="http://www.w3.org/1999/xlink" version="1.1" x="0px" y="0px" viewBox="0 0 100 125" style="enable-background:new 0 0 100 100;" xml:space="preserve"><style type="text/css">
	.st0{fill:none;}
</style><path d="M98.06,48.47L53.49,3.79c-0.58-0.58-1.35-0.88-2.11-0.88c-0.74,0-1.47,0.27-2.05,0.82L2.13,48.41  c-1.24,1.18-1.24,3.16,0,4.33l47.2,44.67c0.58,0.55,1.31,0.82,2.05,0.82c0.77,0,1.53-0.29,2.11-0.88l44.57-44.67  C99.22,51.52,99.22,49.63,98.06,48.47z M50.19,94.79L5.41,52.4l44.79,9.56V94.79z M50.19,59.41L4.46,49.64L50.19,6.36V59.41z   M52.69,94.62V61.95l42.13-9.56L52.69,94.62z M52.69,59.39V6.53l42.99,43.1L52.69,59.39z"/></svg>