<svg xmlns="http://www.w3.org/2000/svg" data-name="Layer 1" viewBox="0 0 128 160" x="0px" y="0px"><title>miscellaneous 346 FINAL</title><path d="M109.78,80.88043a65.4812,65.4812,0,0,0-2.81152-9.155c-.0119-.05457-.02142-.11566-.03357-.16925a1.99921,1.99921,0,0,0-.32227-.71808,47.58124,47.58124,0,0,0-6.16083-10.97443A23.29508,23.29508,0,0,1,96.17,50.23792a4.09436,4.09436,0,0,0,.71423-2.03351l1.8175-6.83893a4.12286,4.12286,0,0,0-1.10126-4.5451c5.31287-15.29657,8.70355-18.22864,14.19843-22.97565,6.72845-5.81256,7.17914-11.47473,7.19482-11.713a1.98931,1.98931,0,0,0-1.842-2.11426,2.02138,2.02138,0,0,0-2.15192,1.8252c-.01562.1748-.44971,4.338-5.82117,8.97662-6.35681,5.49188-10.01,9.18188-15.4729,25.01257a150.61821,150.61821,0,0,1-52.26312-8.64172C57.0708,17.18176,55.979,2.49493,55.91809,1.81921a2.00256,2.00256,0,0,0-3.989.35938c.01324.14752,1.0957,14.434-15.23413,23.17792-.03668-.01532-.08-.0329-.1156-.04785a3.99176,3.99176,0,0,0-4.53552,1.04889l-6.07733,6.85651a4.38762,4.38762,0,0,0-1.0683,2.98846c-1.07373.75647-29.4201,21.31934-10.27679,56.50226.00934.01715.02466.02985.03448.04669.01624.02789.02594.05774.0437.08514.07825.12109,7.86945,12.41711,6.19269,33.00122a2.00074,2.00074,0,0,0,1.83319,2.15533c.05475.00488.11047.00684.16425.00684a2.00125,2.00125,0,0,0,1.99353-1.838c1.17883-14.46234-2.01154-25.05084-4.42181-30.74207a35.95948,35.95948,0,0,0,9.37378,1.19983,42.93568,42.93568,0,0,0,8.83417-.9671c1.18176,1.28064,2.48364,2.56689,3.92664,3.85486l5.24139,4.56543a18.20755,18.20755,0,0,0,1.53461,1.18542,1.9886,1.9886,0,0,0,.22235.24042c.09967.08789,9.96069,8.92682,11.351,20.73456A2.00193,2.00193,0,0,0,62.931,128a1.9338,1.9338,0,0,0,.23663-.01367,2.00022,2.00022,0,0,0,1.75494-2.21979c-.84564-7.18036-4.31427-13.24628-7.4126-17.38593a18.30827,18.30827,0,0,0,2.27875.15924c.16718,0,.33533-.002.50256-.00684,13.52142-.36792,37.37372-3.22882,47.405-18.04291,2.3302,5.32214,6.44476,16.92407,8.30859,35.70709A2.00151,2.00151,0,0,0,117.99554,128a1.97455,1.97455,0,0,0,.1994-.00977,2,2,0,0,0,1.795-2.18756c-2.42645-24.4563-8.48535-37.04193-10.15387-40.11737A11.49864,11.49864,0,0,0,109.78,80.88043Zm-80.81488-45.016L35.04834,29.005A152.11135,152.11135,0,0,0,94.93378,39.80585a.11916.11916,0,0,1,.02448.13776,1.96777,1.96777,0,0,0-.09485.27734l-1.90552,7.17a2.663,2.663,0,0,0-.0929.59473c-14.2,2.21094-36.79828,1.91211-63.94482-12.03333A.27386.27386,0,0,1,28.96515,35.86444ZM17.84491,90.2467q-.39111-.73535-.752-1.46051a26.94534,26.94534,0,0,0,8.377,1.24567,38.80271,38.80271,0,0,0,8.14349-.93317q.94482,1.50659,2.10162,3.03625C26.11462,93.62689,19.58887,91.0592,17.84491,90.2467Zm24.37964,3.24518a1.98111,1.98111,0,0,0-.26605-.18823C24.757,75.07617,35.85535,58.87836,36.3653,58.15955a2.00159,2.00159,0,0,0-3.25867-2.3252,30.54844,30.54844,0,0,0-1.52045,29.5968C20.35535,87.50995,15.064,83.5351,14.6817,83.23041,4.61084,55.96008,25.52722,40.64624,27.129,39.52448,47.484,49.97217,65.42188,53.01007,79.3797,53.00909a91.94936,91.94936,0,0,0,13.10718-.92554,27.0636,27.0636,0,0,0,4.79041,10.21863,44.07771,44.07771,0,0,1,5.834,10.54047c.31012,1.57153.53644,4.12457-.66785,6.08563C92.63623,94.9079,64.96564,97.35712,53.52374,97.6687A17.59466,17.59466,0,0,1,42.22455,93.49188Zm62.70807-6.07819c-8.95465,14.59778-34.27881,16.83606-44.75079,17.12122a14.32374,14.32374,0,0,1-9.10431-2.99652,18.32484,18.32484,0,0,0,2.09717.13519c.15253,0,.306-.00293.45856-.00684C68.60205,101.26,95.22089,98.05182,105.74078,81.196c.046.19312.09332.39.13434.57019A7.551,7.551,0,0,1,104.93262,87.4137Z"/></svg>