<svg xmlns="http://www.w3.org/2000/svg" xmlns:xlink="http://www.w3.org/1999/xlink" version="1.1" x="0px" y="0px" viewBox="0 0 1024 1280" style="enable-background:new 0 0 1024 1024;" xml:space="preserve"><path d="M921.67,394.54c-14.56-56.32-35.83-109.66-54.59-156.73l-2.85-7.13c-9.91-24.91-15.07-53.02-20.06-80.2  c-2.9-15.84-5.65-30.79-9.19-44.14L833,98.91H190.99l-1.97,7.43c-3.55,13.35-6.29,28.3-9.19,44.14  c-4.99,27.18-10.15,55.29-20.06,80.2l-2.9,7.27c-18.76,47.05-40.01,100.37-54.56,156.67c-16.77,64.9-22.15,124.17-16.45,181.2  c0.69,6.85,1.3,13.68,1.89,20.28c5.62,62.48,11.42,127.08,86.62,322.58l2.47,6.41h295.18l1.32-8.45  c27.24-173.5,18.66-284.53,10.83-336.3c-2.85,2.99-5.8,5.84-8.86,8.56c-2.94,2.62-5.97,5.11-9.09,7.48  c-29.04,22.08-65.93,33.6-108.3,33.6c-37.05,0-108.13-9.59-143-30.19l20.33-34.44c23.88,14.1,84.46,24.63,122.67,24.63  c98.86,0,134.08-72.57,134.08-140.48v-83.86h40v83.86c0,67.91,35.23,140.48,134.09,140.48c38.21,0,98.79-10.53,122.66-24.63  l20.34,34.44c-34.87,20.6-105.95,30.19-143,30.19c-42.38,0-79.28-11.53-108.31-33.61c-3.12-2.37-6.15-4.87-9.09-7.48  c-3.06-2.72-6.01-5.58-8.86-8.56c-7.82,51.78-16.39,162.83,10.83,336.31l1.32,8.45h295.18l2.47-6.41  c75.2-195.5,81-260.1,86.62-322.58c0.59-6.6,1.2-13.43,1.89-20.29C943.84,518.76,938.45,459.47,921.67,394.54z M256.73,266.91  c-14.93,36.59-30.38,74.43-40.16,114.35l-29.14-7.14c10.31-42.07,26.18-80.95,41.53-118.55c3.5-8.58,6.81-16.69,10.05-24.82  l27.87,11.09C263.6,250.1,260.26,258.26,256.73,266.91z M288.2,168.2c-2.19,10.12-4.45,20.59-8.02,31.28l-28.46-9.49  c3.05-9.15,5.14-18.8,7.16-28.13c1.62-7.47,3.29-15.18,5.45-22.73l28.84,8.28C291.28,154,289.78,160.9,288.2,168.2z"/><text x="0" y="1039" fill="#000000" font-size="5px" font-weight="bold" font-family="'Helvetica Neue', Helvetica, Arial-Unicode, Arial, Sans-serif">Created by IconPai</text><text x="0" y="1044" fill="#000000" font-size="5px" font-weight="bold" font-family="'Helvetica Neue', Helvetica, Arial-Unicode, Arial, Sans-serif">from the Noun Project</text></svg>