<svg xmlns="http://www.w3.org/2000/svg" xmlns:xlink="http://www.w3.org/1999/xlink" version="1.1" x="0px" y="0px" viewBox="0 0 32 40" style="enable-background:new 0 0 32 32;" xml:space="preserve"><path d="M23,19.4299927h3.3499756v-1.0499878l0.7900391-0.6100464c1.2999878-0.9799805,1.5700073-2.789978,0.6300049-4.1199951  l-0.8600464-1.2199707c-0.1599731-0.2200317-0.2699585-0.5100098-0.3299561-0.8500366  C25.710022,6.0700073,20.960022,2.039978,15.2800293,2c-3.0700073-0.0100098-6.0400391,1.1699829-8.25,3.3599854  C4.8699951,7.5,3.6799927,10.3200073,3.6699829,13.3099976c0,3.8999634,1.9800415,7.4899902,5.3300171,9.5899658  C9.539978,23.25,9.8699951,23.8200073,9.8699951,24.4500122V27c0,1.6499634,1.3499756,3,3,3h6.3400269c1.6499634,0,3-1.3500366,3-3  v-2.3200073h1.6999512c1.3400269,0,2.4400024-1.0800171,2.4400024-2.4199829v-0.8300171H23c-0.5499878,0-1-0.4500122-1-1  S22.4500122,19.4299927,23,19.4299927z M22.0700073,13c0,0.5499878-0.4500122,1-1,1c-0.5599976,0-1-0.4500122-1-1v-1  c0-0.5499878,0.4400024-1,1-1c0.5499878,0,1,0.4500122,1,1V13z"/><text x="0" y="47" fill="#000000" font-size="5px" font-weight="bold" font-family="'Helvetica Neue', Helvetica, Arial-Unicode, Arial, Sans-serif">Created by Riyan Resdian</text><text x="0" y="52" fill="#000000" font-size="5px" font-weight="bold" font-family="'Helvetica Neue', Helvetica, Arial-Unicode, Arial, Sans-serif">from the Noun Project</text></svg>