<svg xmlns="http://www.w3.org/2000/svg" xmlns:xlink="http://www.w3.org/1999/xlink" version="1.1" x="0px" y="0px" viewBox="0 0 100 125" style="enable-background:new 0 0 100 100;" xml:space="preserve"><path d="M88.707,55.293C87.729,54.313,84,48.535,84,47c0-0.7,0.15-1.274,0.34-2.002C84.635,43.873,85,42.472,85,40  c0-5.953-3.894-21.481-15.463-28.844C63.57,7.359,53.785,5,44,5c-3.851,0-17.084,0.67-25.707,9.293C10.957,21.628,9,35.161,9,42  c0,5.892,3.261,13.428,6.051,18.264c0.044,0.162,0.115,0.316,0.242,0.443c0.007,0.007,0.016,0.008,0.022,0.015  c0.683,1.155,1.331,2.14,1.885,2.878c2.841,3.789,3.8,5.656,3.8,7.4c0,6.348-1.934,15.227-4.926,22.622  c-0.05,0.123-0.074,0.254-0.073,0.386c0,0.064,0.024,0.125,0.037,0.189c0.013,0.063,0.015,0.126,0.04,0.186  c0.07,0.168,0.197,0.304,0.35,0.414c0.096,0.068,0.196,0.121,0.306,0.151C16.822,94.973,16.911,95,17,95  c0.118,0,0.231-0.026,0.339-0.066c0.032-0.011,0.06-0.027,0.09-0.042c0.082-0.039,0.157-0.089,0.226-0.149  c0.017-0.015,0.037-0.02,0.053-0.035l8-8c0.391-0.391,0.391-1.023,0-1.414s-1.023-0.391-1.414,0l-4.816,4.816  c0.358-1.077,0.691-2.16,1-3.25c0.08-0.044,0.162-0.084,0.23-0.152l8-8c0.391-0.391,0.391-1.023,0-1.414s-1.023-0.391-1.414,0  l-5.862,5.861c0.327-1.422,0.612-2.828,0.84-4.207c0.159-0.045,0.311-0.115,0.436-0.24l8-8c0.391-0.391,0.391-1.023,0-1.414  s-1.023-0.391-1.414,0l-6.599,6.599c0.133-1.188,0.213-2.326,0.255-3.427l7.757-7.758c0.391-0.391,0.391-1.023,0-1.414  s-1.023-0.391-1.414,0l-6.428,6.428c-0.139-0.729-0.394-1.49-0.82-2.352l6.662-6.662c0.391-0.391,0.391-1.023,0-1.414  s-1.023-0.391-1.414,0l-6.278,6.278c-0.368-0.581-0.788-1.205-1.279-1.893l5.972-5.972c0.391-0.391,0.391-1.023,0-1.414  s-1.023-0.391-1.414,0l-5.749,5.749c-0.405-0.563-0.827-1.204-1.26-1.912l5.423-5.423c0.391-0.391,0.391-1.023,0-1.414  s-1.023-0.391-1.414,0l-5.048,5.048c-0.363-0.663-0.725-1.368-1.08-2.093l5.542-5.541c0.391-0.391,0.391-1.023,0-1.414  s-1.023-0.391-1.414,0l-5.03,5.029c-0.345-0.777-0.673-1.573-0.983-2.377c0.155-0.045,0.305-0.115,0.427-0.238l6-6  c0.391-0.391,0.391-1.023,0-1.414s-1.023-0.391-1.414,0l-5.715,5.715c-0.275-0.817-0.521-1.633-0.734-2.438l7.863-7.863  c0.391-0.391,0.391-1.023,0-1.414s-1.023-0.391-1.414,0l-6.963,6.963c-0.179-0.997-0.288-1.956-0.313-2.858l7.69-7.69  c0.391-0.391,0.391-1.023,0-1.414s-1.023-0.391-1.414,0l-6.212,6.212c0.066-1.116,0.177-2.328,0.342-3.609  c0.101-0.048,0.2-0.104,0.284-0.188l8-8c0.391-0.391,0.391-1.023,0-1.414s-1.023-0.391-1.414,0l-6.354,6.354  c0.291-1.526,0.669-3.096,1.127-4.66c0.233-0.016,0.463-0.102,0.641-0.28l8-8c0.391-0.391,0.391-1.023,0-1.414s-1.023-0.391-1.414,0  l-5.92,5.92c1.293-3.2,3.023-6.195,5.334-8.506C27.786,7.628,40.344,7,44,7c9.283,0,18.885,2.294,24.463,5.844  C78.736,19.381,83,33.756,83,40c0,2.215-0.316,3.425-0.595,4.493C82.197,45.29,82,46.043,82,47c0,2.431,4.256,8.67,5.293,9.707  C89.454,58.869,89.959,59.701,90,60c0,1.109-0.799,1.588-2.623,2.414c-1.032,0.467-2.202,0.997-3.084,1.879  c-0.283,0.283-0.37,0.707-0.222,1.078l1.739,4.348C85.123,70.271,83.992,71,83,71c-0.464,0-0.867,0.318-0.973,0.77  c-0.107,0.452,0.111,0.918,0.525,1.125c0.807,0.402,1.163,1.025,1.322,1.49C82.777,74.91,81,76.062,81,78  c0,1.371,0.406,2.352,0.703,3.068C81.863,81.453,82,81.785,82,82c0,0.05-0.218,5-8,5c-12.48,0-21.299-6.723-21.387-6.79  c-0.436-0.338-1.063-0.259-1.402,0.177c-0.339,0.437-0.261,1.064,0.176,1.402c0.205,0.16,2.975,2.266,7.557,4.161  c-1.902,4.776-2.882,7.704-2.893,7.733c-0.174,0.523,0.109,1.09,0.633,1.266C56.789,94.983,56.896,95,57,95  c0.419,0,0.809-0.265,0.949-0.684c0.01-0.029,0.977-2.917,2.861-7.646C64.412,87.959,68.89,89,74,89c8.203,0,10-5.053,10-7  c0-0.613-0.218-1.139-0.449-1.696C83.28,79.649,83,78.973,83,78c0-1.033,1.717-1.848,2.316-2.051C85.725,75.813,86,75.431,86,75  c0-0.074-0.014-1.324-0.877-2.502c1.387-0.625,2.424-1.631,2.584-1.791c0.283-0.283,0.37-0.707,0.222-1.078l-1.733-4.332  c0.58-0.416,1.303-0.742,2.007-1.062C89.895,63.469,92,62.516,92,60C92,58.817,90.793,57.379,88.707,55.293z"/></svg>