<svg xmlns="http://www.w3.org/2000/svg" xmlns:xlink="http://www.w3.org/1999/xlink" version="1.1" x="0px" y="0px" viewBox="0 0 841.9 1051.875" enable-background="new 0 0 841.9 841.5" xml:space="preserve"><path d="M154.9,841.6c42.2-100.9,57-167.1,53.5-235.4c-1.2-23.6-14.1-50.1-40.7-86c-26.6-36-67.3-120.4-78.2-189.3  s10.1-164.3,51.6-219c48.2-63.4,133-107,220.6-111.1c92.7-4.3,167.4,5.6,226.8,43.5c59.4,37.9,85.3,96.5,94.7,147.4  s23.5,59.8,9.3,92.3c-11.6,26.6-1.8,52.9,18.6,80.3s46.4,59.7,44,76.9c-2.3,17.2-23.5,21.1-31.3,24.2s-27.5,2.9-9.9,41.5  c4.9,10.8,14.2,24.5-12.8,39.1c14.7,8.9,12.3,13.3,12.4,19.2c0.2,10.6-20.2,16-14,41.8c6.3,25.8,7.7,62.7-17.2,67.3  c-47.9,8.8-75.6-0.8-106.5-0.3c-18.8,0.3-38.4,11.5-43.7,27.7c-7.8,24.1-13,60.2-9.4,91.5c2.8,24.5,7.3,33.3,14.9,48.5  C506.5,841.6,154.9,841.6,154.9,841.6z"/><text x="0" y="856.5" fill="#000000" font-size="5px" font-weight="bold" font-family="'Helvetica Neue', Helvetica, Arial-Unicode, Arial, Sans-serif">Created by gilbert bages</text><text x="0" y="861.5" fill="#000000" font-size="5px" font-weight="bold" font-family="'Helvetica Neue', Helvetica, Arial-Unicode, Arial, Sans-serif">from the Noun Project</text></svg>